<mxfile host="app.diagrams.net" modified="2024-06-30T11:08:20.660Z" agent="Mozilla/5.0 (Windows NT 10.0; Win64; x64) AppleWebKit/537.36 (KHTML, like Gecko) Chrome/124.0.0.0 YaBrowser/24.6.0.0 Safari/537.36" etag="dUACl4oow7Cp35clHf-i" version="24.3.1" type="device">
  <diagram name="Страница — 1" id="mg2vpptgVQfYa9llw4Pe">
    <mxGraphModel dx="1002" dy="575" grid="1" gridSize="10" guides="1" tooltips="1" connect="1" arrows="1" fold="1" page="1" pageScale="1" pageWidth="1169" pageHeight="1654" math="0" shadow="0">
      <root>
        <mxCell id="0" />
        <mxCell id="1" parent="0" />
        <mxCell id="4DaehVkbmOHVnz1X8rO7-1" value="" style="ellipse;whiteSpace=wrap;html=1;" vertex="1" parent="1">
          <mxGeometry x="470" y="10" width="120" height="80" as="geometry" />
        </mxCell>
        <mxCell id="4DaehVkbmOHVnz1X8rO7-2" value="Авторизация" style="text;strokeColor=none;align=center;fillColor=none;html=1;verticalAlign=middle;whiteSpace=wrap;rounded=0;" vertex="1" parent="1">
          <mxGeometry x="500" y="35" width="60" height="30" as="geometry" />
        </mxCell>
        <mxCell id="4DaehVkbmOHVnz1X8rO7-3" value="авториз.пользоваетль" style="shape=umlActor;verticalLabelPosition=bottom;verticalAlign=top;html=1;outlineConnect=0;" vertex="1" parent="1">
          <mxGeometry x="230" y="200" width="30" height="60" as="geometry" />
        </mxCell>
        <mxCell id="4DaehVkbmOHVnz1X8rO7-4" value="Гость" style="shape=umlActor;verticalLabelPosition=bottom;verticalAlign=top;html=1;outlineConnect=0;" vertex="1" parent="1">
          <mxGeometry x="220" y="380" width="30" height="60" as="geometry" />
        </mxCell>
        <mxCell id="4DaehVkbmOHVnz1X8rO7-5" value="администратор" style="shape=umlActor;verticalLabelPosition=bottom;verticalAlign=top;html=1;outlineConnect=0;" vertex="1" parent="1">
          <mxGeometry x="860" y="290" width="30" height="60" as="geometry" />
        </mxCell>
        <mxCell id="4DaehVkbmOHVnz1X8rO7-9" value="" style="ellipse;whiteSpace=wrap;html=1;" vertex="1" parent="1">
          <mxGeometry x="500" y="300" width="120" height="80" as="geometry" />
        </mxCell>
        <mxCell id="4DaehVkbmOHVnz1X8rO7-10" value="Бронирование дорожек" style="text;strokeColor=none;align=center;fillColor=none;html=1;verticalAlign=middle;whiteSpace=wrap;rounded=0;" vertex="1" parent="1">
          <mxGeometry x="530" y="325" width="60" height="30" as="geometry" />
        </mxCell>
        <mxCell id="4DaehVkbmOHVnz1X8rO7-11" value="" style="ellipse;whiteSpace=wrap;html=1;" vertex="1" parent="1">
          <mxGeometry x="340" y="480" width="120" height="80" as="geometry" />
        </mxCell>
        <mxCell id="4DaehVkbmOHVnz1X8rO7-12" value="регистрация/авторихация" style="text;strokeColor=none;align=center;fillColor=none;html=1;verticalAlign=middle;whiteSpace=wrap;rounded=0;" vertex="1" parent="1">
          <mxGeometry x="370" y="505" width="60" height="30" as="geometry" />
        </mxCell>
        <mxCell id="4DaehVkbmOHVnz1X8rO7-13" value="" style="ellipse;whiteSpace=wrap;html=1;" vertex="1" parent="1">
          <mxGeometry x="700" y="110" width="120" height="80" as="geometry" />
        </mxCell>
        <mxCell id="4DaehVkbmOHVnz1X8rO7-14" value="БД" style="text;strokeColor=none;align=center;fillColor=none;html=1;verticalAlign=middle;whiteSpace=wrap;rounded=0;" vertex="1" parent="1">
          <mxGeometry x="730" y="135" width="60" height="30" as="geometry" />
        </mxCell>
        <mxCell id="4DaehVkbmOHVnz1X8rO7-15" value="" style="ellipse;whiteSpace=wrap;html=1;" vertex="1" parent="1">
          <mxGeometry x="340" y="370" width="120" height="80" as="geometry" />
        </mxCell>
        <mxCell id="4DaehVkbmOHVnz1X8rO7-16" value="Задать вопросы" style="text;strokeColor=none;align=center;fillColor=none;html=1;verticalAlign=middle;whiteSpace=wrap;rounded=0;" vertex="1" parent="1">
          <mxGeometry x="370" y="395" width="60" height="30" as="geometry" />
        </mxCell>
        <mxCell id="4DaehVkbmOHVnz1X8rO7-17" value="" style="ellipse;whiteSpace=wrap;html=1;" vertex="1" parent="1">
          <mxGeometry x="660" y="420" width="120" height="80" as="geometry" />
        </mxCell>
        <mxCell id="4DaehVkbmOHVnz1X8rO7-18" value="просмотрт забронированных дорожек" style="text;strokeColor=none;align=center;fillColor=none;html=1;verticalAlign=middle;whiteSpace=wrap;rounded=0;" vertex="1" parent="1">
          <mxGeometry x="690" y="445" width="60" height="30" as="geometry" />
        </mxCell>
        <mxCell id="4DaehVkbmOHVnz1X8rO7-19" value="" style="ellipse;whiteSpace=wrap;html=1;" vertex="1" parent="1">
          <mxGeometry x="650" y="260" width="120" height="80" as="geometry" />
        </mxCell>
        <mxCell id="4DaehVkbmOHVnz1X8rO7-20" value="Взаимодействие с пользователем" style="text;strokeColor=none;align=center;fillColor=none;html=1;verticalAlign=middle;whiteSpace=wrap;rounded=0;" vertex="1" parent="1">
          <mxGeometry x="680" y="285" width="60" height="30" as="geometry" />
        </mxCell>
        <mxCell id="4DaehVkbmOHVnz1X8rO7-21" value="" style="ellipse;whiteSpace=wrap;html=1;" vertex="1" parent="1">
          <mxGeometry x="390" y="150" width="120" height="80" as="geometry" />
        </mxCell>
        <mxCell id="4DaehVkbmOHVnz1X8rO7-22" value="Просмотр свободных дорожек" style="text;strokeColor=none;align=center;fillColor=none;html=1;verticalAlign=middle;whiteSpace=wrap;rounded=0;" vertex="1" parent="1">
          <mxGeometry x="420" y="175" width="60" height="30" as="geometry" />
        </mxCell>
        <mxCell id="4DaehVkbmOHVnz1X8rO7-23" value="" style="endArrow=none;html=1;rounded=0;" edge="1" parent="1" target="4DaehVkbmOHVnz1X8rO7-11">
          <mxGeometry width="50" height="50" relative="1" as="geometry">
            <mxPoint x="240" y="420" as="sourcePoint" />
            <mxPoint x="290" y="370" as="targetPoint" />
          </mxGeometry>
        </mxCell>
        <mxCell id="4DaehVkbmOHVnz1X8rO7-24" value="" style="endArrow=none;html=1;rounded=0;" edge="1" parent="1" target="4DaehVkbmOHVnz1X8rO7-15">
          <mxGeometry width="50" height="50" relative="1" as="geometry">
            <mxPoint x="240" y="407" as="sourcePoint" />
            <mxPoint x="356" y="480" as="targetPoint" />
          </mxGeometry>
        </mxCell>
        <mxCell id="4DaehVkbmOHVnz1X8rO7-25" value="" style="endArrow=none;html=1;rounded=0;entryX=0.277;entryY=0.075;entryDx=0;entryDy=0;entryPerimeter=0;" edge="1" parent="1" target="4DaehVkbmOHVnz1X8rO7-15">
          <mxGeometry width="50" height="50" relative="1" as="geometry">
            <mxPoint x="250" y="227" as="sourcePoint" />
            <mxPoint x="366" y="300" as="targetPoint" />
          </mxGeometry>
        </mxCell>
        <mxCell id="4DaehVkbmOHVnz1X8rO7-26" value="" style="endArrow=none;dashed=1;html=1;dashPattern=1 3;strokeWidth=2;rounded=0;entryX=0.5;entryY=1;entryDx=0;entryDy=0;exitX=0.583;exitY=0.035;exitDx=0;exitDy=0;exitPerimeter=0;" edge="1" parent="1" source="4DaehVkbmOHVnz1X8rO7-9" target="4DaehVkbmOHVnz1X8rO7-1">
          <mxGeometry width="50" height="50" relative="1" as="geometry">
            <mxPoint x="490" y="320" as="sourcePoint" />
            <mxPoint x="540" y="270" as="targetPoint" />
          </mxGeometry>
        </mxCell>
        <mxCell id="4DaehVkbmOHVnz1X8rO7-27" value="" style="endArrow=none;dashed=1;html=1;dashPattern=1 3;strokeWidth=2;rounded=0;entryX=0.5;entryY=1;entryDx=0;entryDy=0;exitX=0.277;exitY=0.015;exitDx=0;exitDy=0;exitPerimeter=0;" edge="1" parent="1" source="4DaehVkbmOHVnz1X8rO7-9">
          <mxGeometry width="50" height="50" relative="1" as="geometry">
            <mxPoint x="530" y="433" as="sourcePoint" />
            <mxPoint x="490" y="220" as="targetPoint" />
          </mxGeometry>
        </mxCell>
        <mxCell id="4DaehVkbmOHVnz1X8rO7-28" value="include" style="text;strokeColor=none;align=center;fillColor=none;html=1;verticalAlign=middle;whiteSpace=wrap;rounded=0;" vertex="1" parent="1">
          <mxGeometry x="555" y="205" width="60" height="30" as="geometry" />
        </mxCell>
        <mxCell id="4DaehVkbmOHVnz1X8rO7-29" value="extend" style="text;strokeColor=none;align=center;fillColor=none;html=1;verticalAlign=middle;whiteSpace=wrap;rounded=0;" vertex="1" parent="1">
          <mxGeometry x="450" y="250" width="60" height="30" as="geometry" />
        </mxCell>
        <mxCell id="4DaehVkbmOHVnz1X8rO7-30" value="" style="endArrow=none;html=1;rounded=0;entryX=0;entryY=0.5;entryDx=0;entryDy=0;" edge="1" parent="1" target="4DaehVkbmOHVnz1X8rO7-21">
          <mxGeometry width="50" height="50" relative="1" as="geometry">
            <mxPoint x="250" y="230" as="sourcePoint" />
            <mxPoint x="396" y="163" as="targetPoint" />
          </mxGeometry>
        </mxCell>
        <mxCell id="4DaehVkbmOHVnz1X8rO7-31" value="" style="endArrow=none;html=1;rounded=0;entryX=0;entryY=0;entryDx=0;entryDy=0;" edge="1" parent="1" target="4DaehVkbmOHVnz1X8rO7-9">
          <mxGeometry width="50" height="50" relative="1" as="geometry">
            <mxPoint x="250" y="230" as="sourcePoint" />
            <mxPoint x="386" y="320" as="targetPoint" />
          </mxGeometry>
        </mxCell>
        <mxCell id="4DaehVkbmOHVnz1X8rO7-32" value="" style="endArrow=none;html=1;rounded=0;entryX=-0.003;entryY=0.645;entryDx=0;entryDy=0;entryPerimeter=0;" edge="1" parent="1" target="4DaehVkbmOHVnz1X8rO7-17">
          <mxGeometry width="50" height="50" relative="1" as="geometry">
            <mxPoint x="254" y="230" as="sourcePoint" />
            <mxPoint x="370" y="303" as="targetPoint" />
          </mxGeometry>
        </mxCell>
        <mxCell id="4DaehVkbmOHVnz1X8rO7-33" value="" style="endArrow=none;html=1;rounded=0;entryX=1.017;entryY=0.315;entryDx=0;entryDy=0;entryPerimeter=0;exitX=0.5;exitY=0.5;exitDx=0;exitDy=0;exitPerimeter=0;" edge="1" parent="1" source="4DaehVkbmOHVnz1X8rO7-5" target="4DaehVkbmOHVnz1X8rO7-17">
          <mxGeometry width="50" height="50" relative="1" as="geometry">
            <mxPoint x="870" y="372" as="sourcePoint" />
            <mxPoint x="986" y="445" as="targetPoint" />
          </mxGeometry>
        </mxCell>
        <mxCell id="4DaehVkbmOHVnz1X8rO7-34" value="" style="endArrow=none;html=1;rounded=0;entryX=0.25;entryY=0.1;entryDx=0;entryDy=0;entryPerimeter=0;" edge="1" parent="1" target="4DaehVkbmOHVnz1X8rO7-5">
          <mxGeometry width="50" height="50" relative="1" as="geometry">
            <mxPoint x="790" y="183.5" as="sourcePoint" />
            <mxPoint x="906" y="256.5" as="targetPoint" />
          </mxGeometry>
        </mxCell>
        <mxCell id="4DaehVkbmOHVnz1X8rO7-35" value="" style="endArrow=none;html=1;rounded=0;" edge="1" parent="1">
          <mxGeometry width="50" height="50" relative="1" as="geometry">
            <mxPoint x="770" y="303.5" as="sourcePoint" />
            <mxPoint x="870" y="320" as="targetPoint" />
          </mxGeometry>
        </mxCell>
        <mxCell id="4DaehVkbmOHVnz1X8rO7-36" value="" style="endArrow=none;html=1;rounded=0;entryX=0;entryY=1;entryDx=0;entryDy=0;" edge="1" parent="1" source="4DaehVkbmOHVnz1X8rO7-4" target="4DaehVkbmOHVnz1X8rO7-21">
          <mxGeometry width="50" height="50" relative="1" as="geometry">
            <mxPoint x="320" y="297" as="sourcePoint" />
            <mxPoint x="436" y="370" as="targetPoint" />
          </mxGeometry>
        </mxCell>
      </root>
    </mxGraphModel>
  </diagram>
</mxfile>
